<svg width="834" height="250" viewBox="0 0 834 250" fill="none" xmlns="http://www.w3.org/2000/svg">
<path d="M101.5 235L101.5 242.5L116.5 242.5L116.5 235L101.5 235ZM109 60L65.6987 135L152.301 135L109 60ZM116.5 235L116.5 127.5L101.5 127.5L101.5 235L116.5 235Z" fill="white"/>
<path fill-rule="evenodd" clip-rule="evenodd" d="M109 17.3205L45.75 53.8379V36.5174L109 0L172.25 36.5174V53.8379L109 17.3205ZM202.25 71.1584L202.253 71.1603V178.84L109 232.679L15.7468 178.84V71.1603L15.75 71.1584V53.8379L0.746826 62.5V187.5L109 250L217.253 187.5V62.5L202.25 53.8379V71.1584Z" fill="white"/>
<line x1="265" y1="49" x2="265" y2="202" stroke="white" stroke-width="10"/>
<path d="M340.4 169.2C330.467 169.2 322.7 166.433 317.1 160.9C311.5 155.367 308.7 147.467 308.7 137.2V98H324.9V136.6C324.9 143.267 326.267 148.067 329 151C331.733 153.933 335.567 155.4 340.5 155.4C345.433 155.4 349.267 153.933 352 151C354.733 148.067 356.1 143.267 356.1 136.6V98H372.1V137.2C372.1 147.467 369.3 155.367 363.7 160.9C358.1 166.433 350.333 169.2 340.4 169.2ZM388.109 168V98H418.409C424.675 98 430.075 99.0333 434.609 101.1C439.142 103.1 442.642 106 445.109 109.8C447.575 113.6 448.809 118.133 448.809 123.4C448.809 128.6 447.575 133.1 445.109 136.9C442.642 140.7 439.142 143.633 434.609 145.7C430.075 147.7 424.675 148.7 418.409 148.7H397.109L404.309 141.4V168H388.109ZM404.309 143.2L397.109 135.5H417.509C422.509 135.5 426.242 134.433 428.709 132.3C431.175 130.167 432.409 127.2 432.409 123.4C432.409 119.533 431.175 116.533 428.709 114.4C426.242 112.267 422.509 111.2 417.509 111.2H397.109L404.309 103.5V143.2ZM457.86 146.1V133.6H486.16V146.1H457.86ZM513.698 168L490.798 98H507.598L527.498 160H519.098L539.898 98H554.898L574.898 160H566.798L587.198 98H602.698L579.798 168H562.398L544.698 113.6H549.298L531.098 168H513.698ZM600.198 168L631.398 98H647.398L678.698 168H661.698L636.098 106.2H642.498L616.798 168H600.198ZM615.798 153L620.098 140.7H656.098L660.498 153H615.798ZM685.96 168V98H716.26C722.527 98 727.927 99.0333 732.46 101.1C736.993 103.1 740.493 106 742.96 109.8C745.427 113.6 746.66 118.133 746.66 123.4C746.66 128.6 745.427 133.1 742.96 136.9C740.493 140.633 736.993 143.5 732.46 145.5C727.927 147.5 722.527 148.5 716.26 148.5H694.96L702.16 141.4V168H685.96ZM730.46 168L712.96 142.6H730.26L747.96 168H730.46ZM702.16 143.2L694.96 135.6H715.36C720.36 135.6 724.093 134.533 726.56 132.4C729.027 130.2 730.26 127.2 730.26 123.4C730.26 119.533 729.027 116.533 726.56 114.4C724.093 112.267 720.36 111.2 715.36 111.2H694.96L702.16 103.5V143.2ZM759.495 168V98H791.295C798.895 98 805.595 99.4667 811.395 102.4C817.195 105.267 821.729 109.3 824.995 114.5C828.262 119.7 829.895 125.867 829.895 133C829.895 140.067 828.262 146.233 824.995 151.5C821.729 156.7 817.195 160.767 811.395 163.7C805.595 166.567 798.895 168 791.295 168H759.495ZM775.695 154.7H790.495C795.162 154.7 799.195 153.833 802.595 152.1C806.062 150.3 808.729 147.767 810.595 144.5C812.529 141.233 813.495 137.4 813.495 133C813.495 128.533 812.529 124.7 810.595 121.5C808.729 118.233 806.062 115.733 802.595 114C799.195 112.2 795.162 111.3 790.495 111.3H775.695V154.7Z" fill="white"/>
</svg>
