<svg width="226" height="210" viewBox="0 0 226 210" fill="none" xmlns="http://www.w3.org/2000/svg">
<path d="M188.091 182.314C186.791 182.314 185.507 182.497 184.269 182.859C183.687 181.887 182.985 180.987 182.176 180.177C178.721 176.722 173.822 175.387 169.226 176.593C167.506 174.075 164.475 172.678 161.336 173.183C160.722 171.897 159.899 170.734 158.882 169.716C153.973 164.807 145.988 164.809 141.08 169.716C139.555 171.241 138.46 173.109 137.876 175.166C135.253 174.81 132.708 175.863 131.084 177.813C128.873 175.1 125.331 173.66 121.759 174.207C115.84 166.88 114.367 141.176 117.15 132.439H115.072C112.344 142.599 114.088 168.876 120.641 175.972C120.881 176.231 121.24 176.346 121.584 176.271C125.033 175.537 128.504 177.137 130.234 180.085C130.414 180.391 130.742 180.579 131.096 180.579C131.103 180.579 131.11 180.579 131.118 180.579C131.479 180.571 131.809 180.368 131.979 180.048C133.175 177.799 135.767 176.589 138.355 177.302C138.621 177.376 138.909 177.335 139.145 177.189C139.382 177.044 139.548 176.807 139.601 176.534C140.011 174.481 141.011 172.613 142.494 171.13C146.622 167.003 153.34 167.002 157.468 171.13C158.493 172.156 159.284 173.356 159.816 174.699C160.003 175.171 160.517 175.429 161.005 175.296C163.83 174.54 166.589 175.844 167.896 178.246C168.126 178.67 168.628 178.866 169.085 178.719C173.177 177.38 177.65 178.481 180.761 181.591C181.582 182.412 182.274 183.341 182.817 184.352C182.992 184.676 183.33 184.878 183.698 184.878H184.354C184.455 184.878 184.554 184.863 184.651 184.833C185.76 184.489 186.918 184.314 188.091 184.314C194.477 184.314 199.673 189.51 199.673 195.896C199.673 202.282 194.477 207.478 188.091 207.478C187.395 207.478 186.671 207.408 185.936 207.269C185.888 207.26 185.841 207.256 185.792 207.256C185.662 207.256 185.532 207.287 185.411 207.341H24.4875C24.4412 207.341 24.3943 207.344 24.3484 207.35C23.7302 207.437 23.2156 207.478 22.7288 207.478C16.3425 207.478 11.1472 202.282 11.1472 195.896C11.1472 189.926 15.8069 184.86 21.7551 184.364C22.1985 184.327 22.5642 184.002 22.6521 183.566C23.1736 180.985 25.4485 179.113 28.0608 179.113L28.2874 179.125C28.7126 179.142 29.1233 178.876 29.2717 178.464C29.8376 176.89 30.7131 175.502 31.8743 174.341C36.2542 169.963 43.3796 169.963 47.7576 174.341C49.8562 176.44 51.0232 179.233 51.0432 182.206C51.0457 182.592 51.2703 182.942 51.6199 183.105C51.968 183.269 52.3806 183.217 52.6794 182.971C54.1423 181.765 55.9075 181.128 57.7849 181.128C59.6033 181.128 61.324 181.725 62.7615 182.855C63.1482 183.159 63.6975 183.138 64.0583 182.803C65.9294 181.073 68.3533 180.12 70.8835 180.12C72.8547 180.12 74.7727 180.702 76.4309 181.802C76.7556 182.017 77.1765 182.025 77.5076 181.82C77.8396 181.616 78.0227 181.238 77.9768 180.851C77.9485 180.613 77.929 180.373 77.929 180.128C77.929 176.79 80.6448 174.075 83.9827 174.075C84.6277 174.075 85.2727 174.181 85.8997 174.391C86.3708 174.548 86.8884 174.334 87.1111 173.889C87.6267 172.857 88.2927 171.929 89.0911 171.13C91.5813 168.64 95.1345 167.552 98.5994 168.223C99.115 168.319 99.6228 168.004 99.7571 167.494C102.805 155.818 100.882 138.339 100.093 132.439H98.0704C98.7825 137.787 100.69 154.73 98.0378 166.114C94.2253 165.668 90.4119 166.981 87.6765 169.716C86.9187 170.474 86.261 171.33 85.7156 172.266C85.1443 172.139 84.5637 172.075 83.9827 172.075C79.8357 172.075 76.4114 175.224 75.9758 179.257C74.384 178.51 72.6521 178.12 70.8835 178.12C68.1228 178.12 65.469 179.065 63.3245 180.796C61.677 179.702 59.7781 179.128 57.7849 179.128C56.0779 179.128 54.3977 179.572 52.9114 180.401C52.512 177.578 51.2175 174.973 49.1716 172.927C44.0134 167.769 35.6194 167.769 30.4602 172.927C29.2551 174.132 28.3113 175.541 27.6477 177.124C24.5085 177.299 21.7952 179.448 20.8743 182.45C14.2429 183.363 9.14722 189.135 9.14722 195.896C9.14722 203.385 15.24 209.478 22.7288 209.478C23.2917 209.478 23.8743 209.434 24.5569 209.341H185.751C185.832 209.341 185.911 209.329 185.986 209.307C186.7 209.421 187.406 209.478 188.091 209.478C195.58 209.478 201.673 203.385 201.673 195.896C201.673 188.407 195.58 182.314 188.091 182.314Z" fill="#2B7A78"/>
<path d="M162.261 34.1337C161.896 34.1337 161.559 33.934 161.385 33.6136L158.624 28.5668L153.578 25.807C153.257 25.6317 153.057 25.2953 153.057 24.9296C153.057 24.5638 153.257 24.2274 153.578 24.0521L158.624 21.2924L161.385 16.2455C161.734 15.6049 162.789 15.6049 163.138 16.2455L165.899 21.2924L170.945 24.0521C171.266 24.2274 171.466 24.5638 171.466 24.9296C171.466 25.2953 171.266 25.6317 170.945 25.807L165.899 28.5668L163.138 33.6136C162.964 33.934 162.627 34.1337 162.261 34.1337ZM156.141 24.9296L159.841 26.9525C160.009 27.0443 160.146 27.1825 160.238 27.35L162.261 31.0497L164.285 27.35C164.377 27.1825 164.514 27.0443 164.682 26.9525L168.382 24.9296L164.682 22.9066C164.514 22.8148 164.377 22.6766 164.285 22.5092L162.261 18.8094L160.238 22.5092C160.146 22.6766 160.009 22.8148 159.841 22.9066L156.141 24.9296Z" fill="#3AAFA9"/>
<path d="M177.691 13.7997C177.326 13.7997 176.989 13.6 176.814 13.2797L174.921 9.81824L171.46 7.92517C171.138 7.74988 170.939 7.41345 170.939 7.04773C170.939 6.68201 171.138 6.34558 171.46 6.17029L174.921 4.27722L176.814 0.815796C177.164 0.175171 178.219 0.174194 178.568 0.815796L180.462 4.27722L183.923 6.17029C184.244 6.34558 184.443 6.68201 184.443 7.04773C184.443 7.41345 184.244 7.74988 183.923 7.92517L180.462 9.81824L178.568 13.2797C178.393 13.6005 178.056 13.7997 177.691 13.7997ZM174.023 7.04773L176.137 8.20398C176.305 8.29578 176.443 8.43396 176.535 8.60144L177.691 10.7157L178.848 8.60144C178.94 8.43396 179.078 8.29578 179.246 8.20398L181.359 7.04773L179.246 5.89148C179.078 5.79968 178.94 5.6615 178.848 5.49402L177.691 3.37976L176.535 5.49402C176.443 5.6615 176.305 5.79968 176.137 5.89148L174.023 7.04773Z" fill="#3AAFA9"/>
<path d="M112.337 55.2944C108.55 54.4424 104.656 55.1138 101.376 57.1875C98.094 59.2617 95.8171 62.4897 94.9631 66.2769C94.1096 70.064 94.782 73.9565 96.8562 77.2378C98.9304 80.5195 102.158 82.7964 105.946 83.6504C107.017 83.8916 108.097 84.0112 109.169 84.0112C111.886 84.0112 114.553 83.2446 116.906 81.7573C120.188 79.6831 122.466 76.4551 123.319 72.668C124.173 68.8809 123.501 64.9883 121.427 61.707C119.352 58.4253 116.124 56.1484 112.337 55.2944ZM121.368 72.2285C120.632 75.4941 118.668 78.2778 115.838 80.0669C113.008 81.8555 109.652 82.4355 106.385 81.6992C103.119 80.9629 100.336 78.999 98.5466 76.1694C96.758 73.3394 96.178 69.9824 96.9143 66.7163C97.6506 63.4507 99.6145 60.667 102.444 58.8779C104.473 57.5952 106.773 56.9346 109.117 56.9346C110.041 56.9346 110.973 57.0376 111.897 57.2456C115.163 57.9819 117.947 59.9458 119.735 62.7754C121.524 65.6055 122.104 68.9624 121.368 72.2285Z" fill="#17252A"/>
<path d="M111.08 60.871C108.785 60.3534 106.422 60.7612 104.43 62.0195C102.44 63.2778 101.058 65.2358 100.54 67.5336C100.022 69.831 100.43 72.1928 101.688 74.183C103.364 76.8344 106.229 78.287 109.156 78.287C110.765 78.287 112.394 77.8471 113.852 76.9252C117.962 74.3271 119.191 68.87 116.595 64.7616C115.336 62.7709 113.378 61.3891 111.08 60.871ZM112.784 75.2348C111.244 76.2079 109.418 76.5234 107.642 76.1225C105.866 75.7221 104.352 74.6537 103.379 73.1147C102.406 71.5756 102.091 69.7494 102.491 67.9731C102.891 66.1967 103.96 64.683 105.499 63.7099C106.602 63.0121 107.853 62.6528 109.128 62.6528C109.631 62.6528 110.138 62.7089 110.64 62.8222C112.417 63.2226 113.93 64.2909 114.903 65.83C116.912 69.0068 115.961 73.226 112.784 75.2348Z" fill="#17252A"/>
<path d="M118.903 69.1404C118.481 69.4068 118.356 69.9643 118.622 70.3855C118.888 70.8068 119.446 70.9325 119.867 70.6662C120.288 70.3998 120.414 69.8425 120.148 69.4211C119.881 68.9998 119.324 68.8742 118.903 69.1404Z" fill="#17252A"/>
<path d="M98.1389 68.3851C97.7175 68.6515 97.5918 69.209 97.8581 69.6302C98.1245 70.0516 98.682 70.1773 99.1032 69.911C99.5246 69.6446 99.6504 69.0871 99.384 68.6659C99.1177 68.2445 98.5602 68.1187 98.1389 68.3851Z" fill="#17252A"/>
<path d="M116.413 63.3321C116.899 63.4417 117.382 63.1364 117.491 62.6501C117.601 62.1639 117.296 61.6809 116.81 61.5712C116.323 61.4616 115.84 61.767 115.731 62.2531C115.621 62.7394 115.926 63.2225 116.413 63.3321Z" fill="#17252A"/>
<path d="M101.593 75.7194C101.107 75.6098 100.624 75.9151 100.514 76.4013C100.405 76.8876 100.71 77.3707 101.196 77.4802C101.683 77.5898 102.166 77.2846 102.275 76.7983C102.385 76.312 102.08 75.8291 101.593 75.7194Z" fill="#17252A"/>
<path d="M109.863 59.9066C110.284 59.6404 110.41 59.0829 110.143 58.6615C109.877 58.2403 109.32 58.1146 108.898 58.381C108.477 58.6474 108.351 59.2047 108.618 59.6261C108.884 60.0474 109.441 60.173 109.863 59.9066Z" fill="#17252A"/>
<path d="M108.143 79.1446C107.722 79.411 107.596 79.9684 107.863 80.3898C108.129 80.8111 108.686 80.9367 109.108 80.6704C109.529 80.4042 109.655 79.8467 109.388 79.4253C109.122 79.004 108.564 78.8783 108.143 79.1446Z" fill="#17252A"/>
<path d="M101.73 62.7981C102.217 62.9077 102.7 62.6024 102.809 62.1162C102.919 61.6298 102.613 61.1468 102.127 61.0373C101.641 60.9277 101.158 61.2329 101.048 61.7192C100.939 62.2055 101.244 62.6884 101.73 62.7981Z" fill="#17252A"/>
<path d="M116.276 76.2534C115.789 76.1437 115.306 76.4492 115.197 76.9354C115.087 77.4216 115.392 77.9047 115.879 78.0144C116.365 78.1238 116.848 77.8186 116.958 77.3322C117.067 76.8461 116.762 76.363 116.276 76.2534Z" fill="#17252A"/>
<path d="M147.509 98.0986L133.156 80.27L132.975 78.4858C133.014 69.2421 132.724 60.9599 128.825 53.2333C125.021 45.6952 119.453 38.9877 112.722 33.8354C110.421 32.0742 107.196 32.0605 104.881 33.8022C100.94 36.7653 97.4033 40.2707 94.3594 44.1523C94.1628 44.2706 93.9988 44.4467 93.9202 44.6811C93.9172 44.6895 93.9196 44.6979 93.917 44.7065C91.9075 47.3356 90.1218 50.1308 88.6116 53.061C84.6394 60.7646 84.2834 69.0546 84.2439 78.287L84.1902 80.0739L69.551 97.7382C68.7322 98.7148 68.2776 99.956 68.2717 101.232C68.2717 101.268 68.2732 101.303 68.2766 101.338L72.1492 139.504C72.1658 142.5 74.6013 144.938 77.6033 144.951C77.6047 144.951 77.6062 144.951 77.6077 144.951C78.0339 144.951 78.4133 144.681 78.5525 144.278L86.7214 120.675C87.8823 121.994 89.6309 122.827 91.5608 122.835L92.1107 122.838L90.9685 126.424C90.4758 127.975 89.9661 129.944 90.4075 131.426C90.8328 132.854 92.051 133.711 93.6653 133.718L103.767 133.767C103.951 136.646 104.196 139.319 104.501 141.672C105.635 150.411 107.098 151.595 108.379 151.601C108.381 151.601 108.382 151.601 108.385 151.601C111.219 151.601 112.53 142.38 113.137 133.813L122.993 133.86C122.996 133.86 122.999 133.86 123.002 133.86C124.149 133.86 125.247 132.935 125.801 131.501C126.369 130.03 126.296 128.268 125.553 126.327L123.947 122.988L124.595 122.993C124.601 122.993 124.608 122.993 124.614 122.993C126.553 122.993 128.415 121.735 129.634 120.131L137.052 145.152C137.177 145.575 137.565 145.866 138.007 145.868C138.011 145.868 138.016 145.868 138.021 145.868C139.489 145.868 140.906 144.956 142.012 143.298C142.929 141.926 143.502 140.188 143.508 138.77C143.531 138.028 144.852 129.013 146.017 121.059C147.716 109.47 148.747 102.377 148.75 101.594C148.755 100.319 148.311 99.0742 147.509 98.0986ZM106.083 35.4008C107.684 34.1972 109.916 34.2055 111.507 35.4238C115.025 38.1166 118.199 41.2617 120.966 44.7243C117.335 45.6874 113.236 46.2099 109.035 46.1801C104.626 46.1607 100.376 45.5822 96.6373 44.5025C99.4122 41.1098 102.582 38.0331 106.083 35.4008ZM76.9202 142.879C76.2571 142.743 75.6477 142.414 75.1584 141.92C74.5037 141.26 74.1453 140.385 74.1492 139.458C74.1492 139.423 74.1477 139.388 74.1443 139.352L70.2722 101.192C70.2874 100.399 70.5745 99.6303 71.0872 99.019L84.2683 83.1143L85.4481 118.24L76.9202 142.879ZM93.6746 131.718C92.5803 131.713 92.3875 131.067 92.3245 130.854C92.1106 130.137 92.2957 128.851 92.8743 127.031L94.2062 122.847L103.382 122.888C103.411 125.971 103.501 128.955 103.649 131.767L93.6746 131.718ZM108.388 149.462C107.051 147.699 105.301 136.704 105.374 119.708C105.447 102.711 107.291 91.7319 108.644 89.9804C109.982 91.7436 111.732 102.739 111.659 119.735C111.586 136.732 109.741 147.711 108.388 149.462ZM123.935 130.78C123.643 131.535 123.177 131.86 123.003 131.86L113.267 131.813C113.47 128.396 113.57 125.214 113.617 122.934L121.308 122.968L121.719 122.971L123.718 127.116C124.087 128.088 124.425 129.513 123.935 130.78ZM128.903 117.298C128.352 119.065 126.44 120.993 124.618 120.993C124.614 120.993 124.61 120.993 124.607 120.993L113.649 120.945C113.655 120.415 113.658 119.996 113.659 119.744C113.694 111.453 113.294 103.649 112.531 97.77C111.397 89.0312 109.934 87.8471 108.654 87.8417C108.651 87.8417 108.65 87.8417 108.648 87.8417C103.656 87.8417 103.388 116.437 103.374 119.699C103.372 120.103 103.376 120.499 103.376 120.901L94.1013 120.86L91.575 120.835C89.6184 120.827 87.9294 119.653 87.4406 117.977L86.1799 80.4439L86.2434 78.3212C86.2834 69.0063 86.6145 61.2988 90.3889 53.977C91.7949 51.2497 93.4424 48.6389 95.2981 46.1804C99.4019 47.4638 104.124 48.1589 109.026 48.1801C109.103 48.1806 109.178 48.1806 109.255 48.1806C113.752 48.1806 118.165 47.6093 122.029 46.5253C122.121 46.4994 122.196 46.4478 122.274 46.4C124.077 48.8442 125.677 51.4335 127.04 54.1347C130.752 61.4916 131.016 69.207 130.975 78.5292C130.975 78.5644 130.977 78.5991 130.98 78.6337L131.187 80.6861L128.903 117.298ZM144.039 120.769C142.321 132.495 141.51 138.092 141.508 138.755C141.504 139.792 141.049 141.14 140.349 142.188C139.845 142.942 139.274 143.469 138.712 143.714L130.902 117.372L133.028 83.3012L145.957 99.3608C146.471 99.9858 146.753 100.776 146.75 101.583C146.73 102.396 145.238 112.583 144.039 120.769Z" fill="#17252A"/>
<path d="M23.4333 93.4271C14.2346 93.4271 6.65991 92.101 6.17798 92.015C6.09058 91.9994 6.00513 91.972 5.92456 91.9335C2.66626 90.3832 0.560791 87.0575 0.560791 83.4608C0.560791 78.2845 4.77222 74.0731 9.94897 74.0731C10.0701 74.0731 10.1902 74.076 10.3093 74.0809C12.4973 69.6849 16.9827 66.8832 21.9314 66.8832C27.8333 66.8832 32.9602 70.8719 34.4651 76.4955C34.6809 76.4784 34.8972 76.4696 35.1125 76.4696C39.6282 76.4696 43.302 80.1434 43.302 84.6591C43.302 87.5668 41.7336 90.2821 39.2087 91.7445C39.1233 91.7938 39.031 91.8304 38.9353 91.8529C33.8723 93.0385 28.4143 93.4271 23.4333 93.4271ZM6.66382 90.0692C8.32446 90.3485 24.991 93.0131 38.3298 89.9403C40.1667 88.8182 41.302 86.808 41.302 84.6591C41.302 81.246 38.5256 78.4696 35.1125 78.4696C34.7053 78.4696 34.2947 78.5106 33.8914 78.5912C33.6316 78.6444 33.3586 78.5892 33.1365 78.4403C32.9153 78.2914 32.7629 78.0599 32.7126 77.7977C31.7283 72.6322 27.1941 68.8832 21.9314 68.8832C17.5403 68.8832 13.5798 71.4921 11.8416 75.5297C11.6672 75.9344 11.2502 76.1825 10.8079 76.1273C10.5256 76.0946 10.24 76.0731 9.94897 76.0731C5.87524 76.0731 2.56079 79.3871 2.56079 83.4608C2.56079 86.246 4.16675 88.8251 6.66382 90.0692Z" fill="#3AAFA9"/>
<path d="M208.017 78.2001C200.781 78.2001 196.919 76.3549 196.683 76.2386C194.687 75.0839 193.483 73.0004 193.483 70.7684C193.483 67.2094 196.473 64.3055 200.048 64.4882C201.255 60.349 205.075 57.433 209.461 57.433C213.143 57.433 216.486 59.4857 218.167 62.7206C218.202 62.7201 218.237 62.7196 218.272 62.7196C222.224 62.7196 225.439 65.9349 225.439 69.8871C225.439 72.6337 223.832 75.1727 221.344 76.3563C221.286 76.3842 221.225 76.4061 221.163 76.4222C215.981 77.7504 211.588 78.2001 208.017 78.2001ZM199.769 66.4818C197.406 66.4818 195.483 68.4047 195.483 70.7684C195.483 72.2894 196.304 73.7098 197.627 74.4764C197.645 74.4828 205.732 78.287 220.569 74.5096C222.315 73.6395 223.439 71.8353 223.439 69.8871C223.439 67.038 221.121 64.7196 218.272 64.7196C218.068 64.7196 217.868 64.7347 217.671 64.7577C217.222 64.8134 216.812 64.5648 216.636 64.16C215.401 61.2885 212.584 59.433 209.461 59.433C205.719 59.433 202.494 62.0995 201.794 65.7733C201.744 66.035 201.591 66.2665 201.37 66.4154C201.149 66.5643 200.879 66.619 200.615 66.5663C200.335 66.5101 200.05 66.4818 199.769 66.4818Z" fill="#3AAFA9"/>
<path d="M55.2278 27.35C50.9656 27.35 47.7063 26.0697 47.5042 25.9882C47.4602 25.9706 47.4172 25.9496 47.3762 25.9257C46.1135 25.1947 45.3293 23.8373 45.3293 22.3827C45.3293 20.1708 47.092 18.3627 49.2864 18.2894C50.135 15.8505 52.4534 14.1595 55.1003 14.1595C57.3279 14.1595 59.3572 15.3558 60.4456 17.2592C62.9026 17.3568 64.8713 19.3861 64.8713 21.8666C64.8713 23.6337 63.8372 25.2675 62.2371 26.0287C62.219 26.0375 62.2009 26.0453 62.1829 26.0526C59.7854 27.0238 57.3787 27.35 55.2278 27.35ZM48.3162 24.1576C49.0369 24.4257 55.3699 26.64 61.4026 24.2108C62.2957 23.7743 62.8713 22.8573 62.8713 21.8666C62.8713 20.4266 61.6995 19.2552 60.2595 19.2552C60.1555 19.2552 60.0535 19.2635 59.9529 19.2748C59.5139 19.3217 59.0955 19.0814 58.9216 18.6766C58.2634 17.1473 56.7634 16.1595 55.1003 16.1595C53.1077 16.1595 51.3904 17.579 51.0178 19.5345C50.9675 19.7968 50.8152 20.0282 50.5935 20.1771C50.3728 20.326 50.1008 20.3807 49.8386 20.328C49.7053 20.3011 49.5667 20.287 49.425 20.287C48.2693 20.287 47.3293 21.2269 47.3293 22.3827C47.3293 23.1019 47.7058 23.7753 48.3162 24.1576Z" fill="#3AAFA9"/>
</svg>
