<svg width="834" height="250" fill="none" xmlns="http://www.w3.org/2000/svg"><path d="M101.5 235v7.5h15V235h-15ZM109 60l-43.301 75H152.3L109 60Zm7.5 175V127.5h-15V235h15Z" fill="#fff"/><path fill-rule="evenodd" clip-rule="evenodd" d="M109 17.32 45.75 53.838v-17.32L109 0l63.25 36.517v17.32L109 17.32Zm93.25 53.838.003.002v107.68L109 232.679 15.747 178.84V71.16l.003-.002v-17.32L.747 62.5v125L109 250l108.253-62.5v-125l-15.003-8.662v17.32Z" fill="#fff"/><path stroke="#fff" stroke-width="10" d="M265 49v153"/><path d="M340.4 169.2c-9.933 0-17.7-2.767-23.3-8.3-5.6-5.533-8.4-13.433-8.4-23.7V98h16.2v38.6c0 6.667 1.367 11.467 4.1 14.4 2.733 2.933 6.567 4.4 11.5 4.4s8.767-1.467 11.5-4.4c2.733-2.933 4.1-7.733 4.1-14.4V98h16v39.2c0 10.267-2.8 18.167-8.4 23.7-5.6 5.533-13.367 8.3-23.3 8.3Zm47.709-1.2V98h30.3c6.266 0 11.666 1.033 16.2 3.1 4.533 2 8.033 4.9 10.5 8.7 2.466 3.8 3.7 8.333 3.7 13.6 0 5.2-1.234 9.7-3.7 13.5-2.467 3.8-5.967 6.733-10.5 8.8-4.534 2-9.934 3-16.2 3h-21.3l7.2-7.3V168h-16.2Zm16.2-24.8-7.2-7.7h20.4c5 0 8.733-1.067 11.2-3.2 2.466-2.133 3.7-5.1 3.7-8.9 0-3.867-1.234-6.867-3.7-9-2.467-2.133-6.2-3.2-11.2-3.2h-20.4l7.2-7.7v39.7Zm53.551 2.9v-12.5h28.3v12.5h-28.3Zm55.838 21.9-22.9-70h16.8l19.9 62h-8.4l20.8-62h15l20 62h-8.1l20.4-62h15.5l-22.9 70h-17.4l-17.7-54.4h4.6l-18.2 54.4h-17.4Zm86.5 0 31.2-70h16l31.3 70h-17l-25.6-61.8h6.4l-25.7 61.8h-16.6Zm15.6-15 4.3-12.3h36l4.4 12.3h-44.7Zm70.162 15V98h30.3c6.267 0 11.667 1.033 16.2 3.1 4.533 2 8.033 4.9 10.5 8.7 2.467 3.8 3.7 8.333 3.7 13.6 0 5.2-1.233 9.7-3.7 13.5-2.467 3.733-5.967 6.6-10.5 8.6s-9.933 3-16.2 3h-21.3l7.2-7.1V168h-16.2Zm44.5 0-17.5-25.4h17.3l17.7 25.4h-17.5Zm-28.3-24.8-7.2-7.6h20.4c5 0 8.733-1.067 11.2-3.2 2.467-2.2 3.7-5.2 3.7-9 0-3.867-1.233-6.867-3.7-9s-6.2-3.2-11.2-3.2h-20.4l7.2-7.7v39.7Zm57.335 24.8V98h31.8c7.6 0 14.3 1.467 20.1 4.4 5.8 2.867 10.334 6.9 13.6 12.1 3.267 5.2 4.9 11.367 4.9 18.5 0 7.067-1.633 13.233-4.9 18.5-3.266 5.2-7.8 9.267-13.6 12.2-5.8 2.867-12.5 4.3-20.1 4.3h-31.8Zm16.2-13.3h14.8c4.667 0 8.7-.867 12.1-2.6 3.467-1.8 6.134-4.333 8-7.6 1.934-3.267 2.9-7.1 2.9-11.5 0-4.467-.966-8.3-2.9-11.5-1.866-3.267-4.533-5.767-8-7.5-3.4-1.8-7.433-2.7-12.1-2.7h-14.8v43.4Z" fill="#fff"/></svg>