<svg width="226" height="210" fill="none" xmlns="http://www.w3.org/2000/svg"><path d="M188.091 182.314c-1.3 0-2.584.183-3.822.545a13.899 13.899 0 0 0-2.093-2.682c-3.455-3.455-8.354-4.79-12.95-3.584-1.72-2.518-4.751-3.915-7.89-3.41a12.522 12.522 0 0 0-2.454-3.467c-4.909-4.909-12.894-4.907-17.802 0a12.53 12.53 0 0 0-3.204 5.45 7.523 7.523 0 0 0-6.792 2.647c-2.211-2.713-5.753-4.153-9.325-3.606-5.919-7.327-7.392-33.031-4.609-41.768h-2.078c-2.728 10.16-.984 36.437 5.569 43.533.24.259.599.374.943.299a8.094 8.094 0 0 1 8.65 3.814 1 1 0 0 0 .862.494h.022c.361-.008.691-.211.861-.531 1.196-2.249 3.788-3.459 6.376-2.746a.998.998 0 0 0 1.246-.768 10.536 10.536 0 0 1 2.893-5.404c4.128-4.127 10.846-4.128 14.974 0a10.49 10.49 0 0 1 2.348 3.569 1 1 0 0 0 1.189.597c2.825-.756 5.584.548 6.891 2.95.23.424.732.62 1.189.473 4.092-1.339 8.565-.238 11.676 2.872.821.821 1.513 1.75 2.056 2.761.175.324.513.526.881.526h.656a1 1 0 0 0 .297-.045 11.602 11.602 0 0 1 3.44-.519c6.386 0 11.582 5.196 11.582 11.582 0 6.386-5.196 11.582-11.582 11.582-.696 0-1.42-.07-2.155-.209a.771.771 0 0 0-.144-.013.94.94 0 0 0-.381.085H24.488c-.047 0-.094.003-.14.009-.618.087-1.132.128-1.62.128-6.386 0-11.58-5.196-11.58-11.582 0-5.97 4.659-11.036 10.607-11.532a1 1 0 0 0 .897-.798c.522-2.581 2.796-4.453 5.409-4.453l.226.012c.426.017.836-.249.985-.661a11.083 11.083 0 0 1 2.602-4.123c4.38-4.378 11.506-4.378 15.884 0a11.163 11.163 0 0 1 3.285 7.865 1 1 0 0 0 1.636.765 7.941 7.941 0 0 1 5.106-1.843 7.98 7.98 0 0 1 4.977 1.727.998.998 0 0 0 1.296-.052 10.031 10.031 0 0 1 6.825-2.683c1.972 0 3.89.582 5.548 1.682a.999.999 0 0 0 1.546-.951 6.103 6.103 0 0 1-.048-.723 6.06 6.06 0 0 1 6.054-6.053c.645 0 1.29.106 1.917.316.47.157.988-.057 1.211-.502a10.583 10.583 0 0 1 1.98-2.759 10.582 10.582 0 0 1 9.508-2.907 1.006 1.006 0 0 0 1.158-.729c3.048-11.676 1.125-29.155.336-35.055H98.07c.713 5.348 2.62 22.291-.032 33.675a12.573 12.573 0 0 0-10.361 3.602 12.51 12.51 0 0 0-1.961 2.55 7.983 7.983 0 0 0-1.733-.191c-4.147 0-7.572 3.149-8.007 7.182a11.967 11.967 0 0 0-5.093-1.137c-2.76 0-5.414.945-7.558 2.676a9.94 9.94 0 0 0-5.54-1.668 10.02 10.02 0 0 0-4.874 1.273 13.133 13.133 0 0 0-3.74-7.474c-5.158-5.158-13.552-5.158-18.71 0a13.01 13.01 0 0 0-2.813 4.197c-3.14.175-5.853 2.324-6.774 5.326-6.631.913-11.727 6.685-11.727 13.446 0 7.489 6.093 13.582 13.582 13.582.563 0 1.145-.044 1.828-.137H185.75c.081 0 .16-.012.235-.034.714.114 1.42.171 2.105.171 7.489 0 13.582-6.093 13.582-13.582 0-7.489-6.093-13.582-13.582-13.582Z" fill="#2B7A78"/><path d="M162.261 34.134a.997.997 0 0 1-.876-.52l-2.761-5.047-5.046-2.76a1 1 0 0 1 0-1.755l5.046-2.76 2.761-5.047c.349-.64 1.404-.64 1.753 0l2.761 5.047 5.046 2.76a1 1 0 0 1 0 1.755l-5.046 2.76-2.761 5.047a.998.998 0 0 1-.877.52Zm-6.12-9.204 3.7 2.023a1 1 0 0 1 .397.397l2.023 3.7 2.024-3.7a1 1 0 0 1 .397-.398l3.7-2.022-3.7-2.023a1.001 1.001 0 0 1-.397-.398l-2.024-3.7-2.023 3.7a1.001 1.001 0 0 1-.397.398l-3.7 2.023ZM177.691 13.8a1 1 0 0 1-.877-.52l-1.893-3.462-3.461-1.893a.998.998 0 0 1 0-1.755l3.461-1.893 1.893-3.461c.35-.64 1.405-.642 1.754 0l1.894 3.461 3.461 1.893a1 1 0 0 1 0 1.755l-3.461 1.893-1.894 3.462a1 1 0 0 1-.877.52Zm-3.668-6.752 2.114 1.156c.168.092.306.23.398.397l1.156 2.115 1.157-2.115c.092-.167.23-.305.398-.397l2.113-1.156-2.113-1.157a1.003 1.003 0 0 1-.398-.397l-1.157-2.114-1.156 2.114c-.092.168-.23.306-.398.397l-2.114 1.157Z" fill="#3AAFA9"/><path d="M112.337 55.294a14.446 14.446 0 0 0-10.961 1.894 14.438 14.438 0 0 0-6.413 9.089 14.438 14.438 0 0 0 1.893 10.96 14.438 14.438 0 0 0 9.09 6.413 14.437 14.437 0 0 0 10.96-1.893 14.435 14.435 0 0 0 6.413-9.089c.854-3.787.182-7.68-1.892-10.961a14.443 14.443 0 0 0-9.09-6.413Zm9.031 16.934a12.452 12.452 0 0 1-5.53 7.839 12.451 12.451 0 0 1-9.453 1.632 12.454 12.454 0 0 1-7.838-5.53 12.452 12.452 0 0 1-1.633-9.453c.737-3.265 2.7-6.049 5.53-7.838a12.449 12.449 0 0 1 9.453-1.632 12.45 12.45 0 0 1 7.838 5.53 12.452 12.452 0 0 1 1.633 9.452Z" fill="#17252A"/><path d="M111.08 60.871a8.764 8.764 0 0 0-6.65 1.148 8.761 8.761 0 0 0-3.89 5.515 8.759 8.759 0 0 0 1.148 6.649 8.819 8.819 0 0 0 7.468 4.104c1.609 0 3.238-.44 4.696-1.362 4.11-2.598 5.339-8.055 2.743-12.163a8.763 8.763 0 0 0-5.515-3.891Zm1.704 14.364a6.772 6.772 0 0 1-5.142.888 6.773 6.773 0 0 1-4.263-3.008 6.774 6.774 0 0 1-.888-5.142 6.772 6.772 0 0 1 3.008-4.263 6.767 6.767 0 0 1 5.141-.888 6.77 6.77 0 0 1 4.263 3.008 6.825 6.825 0 0 1-2.119 9.405Z" fill="#17252A"/><path d="M118.903 69.14a.902.902 0 1 0 .963 1.526.902.902 0 0 0-.963-1.526ZM98.139 68.385a.903.903 0 1 0 .964 1.526.903.903 0 0 0-.964-1.526ZM116.413 63.332a.901.901 0 1 0 .397-1.76.902.902 0 1 0-.397 1.76ZM101.593 75.72a.903.903 0 1 0-.397 1.761.903.903 0 0 0 .397-1.762ZM109.863 59.907a.902.902 0 1 0-.964-1.525.902.902 0 0 0 .964 1.525ZM108.143 79.145a.902.902 0 1 0 .964 1.525.902.902 0 0 0-.964-1.525ZM101.73 62.798a.902.902 0 1 0 .398-1.76.902.902 0 0 0-.398 1.76ZM116.276 76.253a.902.902 0 1 0-.398 1.76.902.902 0 0 0 .398-1.76Z" fill="#17252A"/><path d="M147.509 98.099 133.156 80.27l-.181-1.784c.039-9.244-.251-17.526-4.15-25.253-3.804-7.538-9.372-14.245-16.103-19.398a6.507 6.507 0 0 0-7.841-.033c-3.941 2.963-7.478 6.469-10.522 10.35a.986.986 0 0 0-.439.53c-.003.008 0 .016-.003.024a56.119 56.119 0 0 0-5.305 8.355c-3.973 7.704-4.329 15.994-4.368 25.226l-.054 1.787-14.639 17.664a5.49 5.49 0 0 0-1.28 3.494c0 .036.002.071.006.106l3.872 38.166a5.484 5.484 0 0 0 5.454 5.447h.005a1 1 0 0 0 .944-.673l8.17-23.603c1.16 1.319 2.909 2.152 4.839 2.16l.55.003-1.142 3.586c-.493 1.551-1.003 3.52-.561 5.002.425 1.428 1.643 2.285 3.257 2.292l10.102.049c.184 2.879.429 5.552.734 7.905 1.134 8.739 2.597 9.923 3.878 9.929h.006c2.834 0 4.145-9.221 4.752-17.788l9.856.047h.009c1.147 0 2.245-.925 2.799-2.359.568-1.471.495-3.233-.248-5.174l-1.606-3.339.648.005h.019c1.939 0 3.801-1.258 5.02-2.862l7.418 25.021a1 1 0 0 0 .955.716h.014c1.468 0 2.885-.912 3.991-2.57.917-1.372 1.49-3.11 1.496-4.528.023-.742 1.344-9.757 2.509-17.711 1.699-11.589 2.73-18.682 2.733-19.465a5.49 5.49 0 0 0-1.241-3.495ZM106.083 35.4a4.503 4.503 0 0 1 5.424.023c3.518 2.693 6.692 5.838 9.459 9.3-3.631.963-7.73 1.486-11.931 1.456-4.409-.02-8.659-.598-12.398-1.678a54.748 54.748 0 0 1 9.446-9.101ZM76.92 142.879a3.448 3.448 0 0 1-1.762-.959 3.454 3.454 0 0 1-1.009-2.462c0-.035-.001-.07-.005-.106l-3.872-38.16a3.49 3.49 0 0 1 .815-2.173l13.181-15.905 1.18 35.126-8.528 24.639Zm16.755-11.161c-1.095-.005-1.287-.651-1.35-.864-.214-.717-.03-2.003.55-3.823l1.331-4.184 9.176.041c.029 3.083.119 6.067.267 8.879l-9.974-.049Zm14.713 17.744c-1.337-1.763-3.087-12.758-3.014-29.754.073-16.997 1.917-27.976 3.27-29.728 1.338 1.764 3.088 12.759 3.015 29.755-.073 16.997-1.918 27.976-3.271 29.727Zm15.547-18.682c-.292.755-.758 1.08-.932 1.08l-9.736-.047c.203-3.417.303-6.599.35-8.879l7.691.034.411.003 1.999 4.145c.369.972.707 2.397.217 3.664Zm4.968-13.482c-.551 1.767-2.463 3.695-4.285 3.695h-.011l-10.958-.048c.006-.53.009-.949.01-1.201.035-8.291-.365-16.095-1.128-21.974-1.134-8.739-2.597-9.923-3.877-9.928h-.006c-4.992 0-5.26 28.595-5.274 31.857-.002.404.002.8.002 1.202l-9.275-.041-2.526-.025c-1.957-.008-3.646-1.182-4.134-2.858L86.18 80.444l.063-2.123c.04-9.315.372-17.022 4.146-24.344a54.121 54.121 0 0 1 4.91-7.797c4.103 1.284 8.825 1.979 13.727 2h.229c4.497 0 8.91-.57 12.774-1.655.092-.026.167-.077.245-.125a54.105 54.105 0 0 1 4.766 7.735c3.712 7.357 3.976 15.072 3.935 24.394 0 .035.002.07.005.105l.207 2.052-2.284 36.612Zm15.136 3.471c-1.718 11.726-2.529 17.323-2.531 17.986-.004 1.037-.459 2.385-1.159 3.433-.504.754-1.075 1.281-1.637 1.526l-7.81-26.342 2.126-34.07 12.929 16.059c.514.625.796 1.415.793 2.222-.02.813-1.512 11-2.711 19.186Z" fill="#17252A"/><path d="M23.433 93.427c-9.198 0-16.773-1.326-17.255-1.412a.993.993 0 0 1-.253-.082C2.666 90.383.56 87.057.56 83.462c0-5.177 4.211-9.388 9.388-9.388.121 0 .241.003.36.008a12.974 12.974 0 0 1 11.622-7.198 12.989 12.989 0 0 1 12.534 9.613c.216-.018.432-.026.647-.026 4.516 0 8.19 3.673 8.19 8.19a8.217 8.217 0 0 1-4.093 7.085 1.01 1.01 0 0 1-.274.108c-5.063 1.186-10.52 1.574-15.502 1.574ZM6.663 90.07c1.661.28 18.328 2.944 31.667-.129a6.212 6.212 0 0 0 2.972-5.28 6.196 6.196 0 0 0-7.41-6.069 1 1 0 0 1-1.18-.793 10.978 10.978 0 0 0-20.871-2.268.993.993 0 0 1-1.033.597 7.446 7.446 0 0 0-.859-.054c-4.074 0-7.388 3.314-7.388 7.388 0 2.785 1.606 5.364 4.103 6.608ZM208.017 78.2c-7.236 0-11.098-1.845-11.334-1.961-1.996-1.155-3.2-3.239-3.2-5.47 0-3.56 2.99-6.464 6.565-6.28a9.817 9.817 0 0 1 9.413-7.056 9.806 9.806 0 0 1 8.706 5.288l.105-.001c3.952 0 7.167 3.215 7.167 7.167a7.201 7.201 0 0 1-4.095 6.47.995.995 0 0 1-.181.065c-5.182 1.328-9.575 1.778-13.146 1.778Zm-8.248-11.718a4.291 4.291 0 0 0-4.286 4.286c0 1.521.821 2.942 2.144 3.708.018.007 8.105 3.811 22.942.034a5.194 5.194 0 0 0 2.87-4.623 5.173 5.173 0 0 0-5.167-5.167 5.17 5.17 0 0 0-.601.038.99.99 0 0 1-1.035-.598 7.805 7.805 0 0 0-7.175-4.727 7.812 7.812 0 0 0-7.667 6.34 1.002 1.002 0 0 1-1.179.793 4.312 4.312 0 0 0-.846-.084ZM55.228 27.35c-4.262 0-7.522-1.28-7.724-1.362a.97.97 0 0 1-.128-.062 4.108 4.108 0 0 1-2.047-3.543 4.1 4.1 0 0 1 3.957-4.094 6.163 6.163 0 0 1 5.814-4.13 6.154 6.154 0 0 1 5.346 3.1 4.617 4.617 0 0 1 4.425 4.608 4.633 4.633 0 0 1-2.688 4.186c-2.398.97-4.804 1.297-6.955 1.297Zm-6.912-3.192c.72.268 7.054 2.482 13.087.053a2.624 2.624 0 0 0 1.468-2.344 2.615 2.615 0 0 0-2.918-2.592 1.003 1.003 0 0 1-1.031-.598 4.157 4.157 0 0 0-7.904.858 1 1 0 0 1-1.18.793 2.098 2.098 0 0 0-2.51 2.055c.001.719.378 1.392.988 1.775Z" fill="#3AAFA9"/></svg>